<?xml version="1.0" encoding="UTF-8" standalone="no"?>
<!DOCTYPE svg PUBLIC "-//W3C//DTD SVG 1.1//EN"
 "http://www.w3.org/Graphics/SVG/1.1/DTD/svg11.dtd">
<!-- Generated by graphviz version 2.40.1 (20161225.0304)
 -->
<!-- Title: dependencies Pages: 1 -->
<svg width="964pt" height="284pt"
 viewBox="0.00 0.00 964.00 284.00" xmlns="http://www.w3.org/2000/svg" xmlns:xlink="http://www.w3.org/1999/xlink">
<g id="graph0" class="graph" transform="scale(1 1) rotate(0) translate(4 280)">
<title>dependencies</title>
<polygon fill="#ffffff" stroke="transparent" points="-4,4 -4,-280 960,-280 960,4 -4,4"/>
<text text-anchor="start" x="457.0091" y="-42.4" font-family="sans-serif" font-weight="bold" font-size="14.00" fill="#000000">Legend</text>
<polygon fill="#ffffb3" stroke="transparent" points="244,-10 244,-30 264,-30 264,-10 244,-10"/>
<text text-anchor="start" x="267.629" y="-15.4" font-family="sans-serif" font-size="14.00" fill="#000000"> &#160;Declarations</text>
<polygon fill="#8dd3c7" stroke="transparent" points="357,-10 357,-30 377,-30 377,-10 357,-10"/>
<text text-anchor="start" x="380.7251" y="-15.4" font-family="sans-serif" font-size="14.00" fill="#000000"> &#160;Module</text>
<polygon fill="#80b1d3" stroke="transparent" points="443,-10 443,-30 463,-30 463,-10 443,-10"/>
<text text-anchor="start" x="466.7812" y="-15.4" font-family="sans-serif" font-size="14.00" fill="#000000"> &#160;Bootstrap</text>
<polygon fill="#fdb462" stroke="transparent" points="540,-10 540,-30 560,-30 560,-10 540,-10"/>
<text text-anchor="start" x="563.6732" y="-15.4" font-family="sans-serif" font-size="14.00" fill="#000000"> &#160;Providers</text>
<polygon fill="#fb8072" stroke="transparent" points="636,-10 636,-30 656,-30 656,-10 636,-10"/>
<text text-anchor="start" x="659.7258" y="-15.4" font-family="sans-serif" font-size="14.00" fill="#000000"> &#160;Exports</text>
<g id="clust1" class="cluster">
<title>cluster_AppModule</title>
<polygon fill="none" stroke="#000000" stroke-dasharray="1,5" points="8,-70 8,-268 948,-268 948,-70 8,-70"/>
</g>
<g id="clust2" class="cluster">
<title>cluster_AppModule_declarations</title>
<polygon fill="none" stroke="#000000" points="318,-78 318,-130 940,-130 940,-78 318,-78"/>
</g>
<g id="clust7" class="cluster">
<title>cluster_AppModule_imports</title>
<polygon fill="none" stroke="#000000" points="166,-78 166,-130 310,-130 310,-78 166,-78"/>
</g>
<g id="clust9" class="cluster">
<title>cluster_AppModule_bootstrap</title>
<polygon fill="none" stroke="#000000" points="419,-208 419,-260 543,-260 543,-208 419,-208"/>
</g>
<g id="clust10" class="cluster">
<title>cluster_AppModule_providers</title>
<polygon fill="none" stroke="#000000" points="16,-78 16,-130 158,-130 158,-78 16,-78"/>
</g>
<!-- AppComponent -->
<g id="node1" class="node">
<title>AppComponent</title>
<polygon fill="#ffffb3" stroke="#000000" points="931.9399,-122 826.0601,-122 826.0601,-86 931.9399,-86 931.9399,-122"/>
<text text-anchor="middle" x="879" y="-99.8" font-family="Times,serif" font-size="14.00" fill="#000000">AppComponent</text>
</g>
<!-- AppModule -->
<g id="node5" class="node">
<title>AppModule</title>
<polygon fill="#8dd3c7" stroke="#000000" points="522.6571,-187 519.6571,-191 498.6571,-191 495.6571,-187 439.3429,-187 439.3429,-151 522.6571,-151 522.6571,-187"/>
<text text-anchor="middle" x="481" y="-164.8" font-family="Times,serif" font-size="14.00" fill="#000000">AppModule</text>
</g>
<!-- AppComponent&#45;&gt;AppModule -->
<g id="edge1" class="edge">
<title>AppComponent&#45;&gt;AppModule</title>
<path fill="none" stroke="#000000" d="M879,-122.2843C879,-143.3211 879,-175 879,-175 879,-175 532.8407,-175 532.8407,-175"/>
<polygon fill="#000000" stroke="#000000" points="532.8408,-171.5001 522.8407,-175 532.8407,-178.5001 532.8408,-171.5001"/>
</g>
<!-- Battleboard2Component -->
<g id="node2" class="node">
<title>Battleboard2Component</title>
<polygon fill="#ffffb3" stroke="#000000" points="807.6456,-122 654.3544,-122 654.3544,-86 807.6456,-86 807.6456,-122"/>
<text text-anchor="middle" x="731" y="-99.8" font-family="Times,serif" font-size="14.00" fill="#000000">Battleboard2Component</text>
</g>
<!-- Battleboard2Component&#45;&gt;AppModule -->
<g id="edge2" class="edge">
<title>Battleboard2Component&#45;&gt;AppModule</title>
<path fill="none" stroke="#000000" d="M731,-122.0225C731,-139.3734 731,-163 731,-163 731,-163 532.8444,-163 532.8444,-163"/>
<polygon fill="#000000" stroke="#000000" points="532.8444,-159.5001 522.8444,-163 532.8443,-166.5001 532.8444,-159.5001"/>
</g>
<!-- BattleboardComponent -->
<g id="node3" class="node">
<title>BattleboardComponent</title>
<polygon fill="#ffffb3" stroke="#000000" points="636.1456,-122 489.8544,-122 489.8544,-86 636.1456,-86 636.1456,-122"/>
<text text-anchor="middle" x="563" y="-99.8" font-family="Times,serif" font-size="14.00" fill="#000000">BattleboardComponent</text>
</g>
<!-- BattleboardComponent&#45;&gt;AppModule -->
<g id="edge3" class="edge">
<title>BattleboardComponent&#45;&gt;AppModule</title>
<path fill="none" stroke="#000000" d="M506.2528,-122.1061C506.2528,-122.1061 506.2528,-140.991 506.2528,-140.991"/>
<polygon fill="#000000" stroke="#000000" points="502.7529,-140.9909 506.2528,-150.991 509.7529,-140.991 502.7529,-140.9909"/>
</g>
<!-- ScoreTableComponent -->
<g id="node4" class="node">
<title>ScoreTableComponent</title>
<polygon fill="#ffffb3" stroke="#000000" points="471.5772,-122 326.4228,-122 326.4228,-86 471.5772,-86 471.5772,-122"/>
<text text-anchor="middle" x="399" y="-99.8" font-family="Times,serif" font-size="14.00" fill="#000000">ScoreTableComponent</text>
</g>
<!-- ScoreTableComponent&#45;&gt;AppModule -->
<g id="edge4" class="edge">
<title>ScoreTableComponent&#45;&gt;AppModule</title>
<path fill="none" stroke="#000000" d="M455.3552,-122.1061C455.3552,-122.1061 455.3552,-140.991 455.3552,-140.991"/>
<polygon fill="#000000" stroke="#000000" points="451.8553,-140.9909 455.3552,-150.991 458.8553,-140.991 451.8553,-140.9909"/>
</g>
<!-- AppComponent  -->
<g id="node7" class="node">
<title>AppComponent </title>
<polygon fill="#80b1d3" stroke="#000000" points="535.439,-252 426.561,-252 426.561,-216 535.439,-216 535.439,-252"/>
<text text-anchor="middle" x="481" y="-229.8" font-family="Times,serif" font-size="14.00" fill="#000000">AppComponent </text>
</g>
<!-- AppModule&#45;&gt;AppComponent  -->
<g id="edge6" class="edge">
<title>AppModule&#45;&gt;AppComponent </title>
<path fill="none" stroke="#000000" stroke-dasharray="1,5" d="M481,-187.1061C481,-187.1061 481,-205.991 481,-205.991"/>
<polygon fill="#000000" stroke="#000000" points="477.5001,-205.9909 481,-215.991 484.5001,-205.991 477.5001,-205.9909"/>
</g>
<!-- AppRoutingModule -->
<g id="node6" class="node">
<title>AppRoutingModule</title>
<polygon fill="#8dd3c7" stroke="#000000" points="302.2744,-122 299.2744,-126 278.2744,-126 275.2744,-122 173.7256,-122 173.7256,-86 302.2744,-86 302.2744,-122"/>
<text text-anchor="middle" x="238" y="-99.8" font-family="Times,serif" font-size="14.00" fill="#000000">AppRoutingModule</text>
</g>
<!-- AppRoutingModule&#45;&gt;AppModule -->
<g id="edge5" class="edge">
<title>AppRoutingModule&#45;&gt;AppModule</title>
<path fill="none" stroke="#000000" d="M238,-122.0225C238,-139.3734 238,-163 238,-163 238,-163 429.2268,-163 429.2268,-163"/>
<polygon fill="#000000" stroke="#000000" points="429.2268,-166.5001 439.2268,-163 429.2268,-159.5001 429.2268,-166.5001"/>
</g>
<!-- BattleService -->
<g id="node8" class="node">
<title>BattleService</title>
<ellipse fill="#fdb462" stroke="#000000" cx="87" cy="-104" rx="63.1131" ry="18"/>
<text text-anchor="middle" x="87" y="-99.8" font-family="Times,serif" font-size="14.00" fill="#000000">BattleService</text>
</g>
<!-- BattleService&#45;&gt;AppModule -->
<g id="edge7" class="edge">
<title>BattleService&#45;&gt;AppModule</title>
<path fill="none" stroke="#000000" d="M87,-122.2843C87,-143.3211 87,-175 87,-175 87,-175 429.2081,-175 429.2081,-175"/>
<polygon fill="#000000" stroke="#000000" points="429.2081,-178.5001 439.2081,-175 429.2081,-171.5001 429.2081,-178.5001"/>
</g>
</g>
</svg>
